<svg width="21" height="19" viewBox="0 0 21 19" fill="none" xmlns="http://www.w3.org/2000/svg">
<path fill-rule="evenodd" clip-rule="evenodd" d="M0 0.669643C0 0.492043 0.0705515 0.321716 0.196134 0.196134C0.321716 0.0705516 0.492043 0 0.669643 0H2.67857C2.82794 4.12654e-05 2.97301 0.0500232 3.09071 0.141997C3.20841 0.233972 3.29198 0.362657 3.32812 0.507589L3.87054 2.67857H19.4196C19.5214 2.6786 19.6217 2.7018 19.7131 2.74641C19.8046 2.79102 19.8846 2.85587 19.9472 2.93604C20.0098 3.0162 20.0533 3.10958 20.0745 3.20907C20.0956 3.30857 20.0938 3.41157 20.0692 3.51027L18.0603 11.546C18.0241 11.6909 17.9406 11.8196 17.8229 11.9116C17.7052 12.0035 17.5601 12.0535 17.4107 12.0536H5.35714C5.20777 12.0535 5.0627 12.0035 4.945 11.9116C4.82731 11.8196 4.74374 11.6909 4.70759 11.546L2.15625 1.33929H0.669643C0.492043 1.33929 0.321716 1.26873 0.196134 1.14315C0.0705515 1.01757 0 0.847243 0 0.669643ZM4.20536 4.01786L5.87946 10.7143H16.8884L18.5625 4.01786H4.20536ZM6.69643 14.7321C6.34123 14.7321 6.00058 14.8732 5.74941 15.1244C5.49825 15.3756 5.35714 15.7162 5.35714 16.0714C5.35714 16.4266 5.49825 16.7673 5.74941 17.0184C6.00058 17.2696 6.34123 17.4107 6.69643 17.4107C7.05163 17.4107 7.39228 17.2696 7.64345 17.0184C7.89461 16.7673 8.03571 16.4266 8.03571 16.0714C8.03571 15.7162 7.89461 15.3756 7.64345 15.1244C7.39228 14.8732 7.05163 14.7321 6.69643 14.7321ZM4.01786 16.0714C4.01786 15.361 4.30006 14.6797 4.80239 14.1774C5.30472 13.6751 5.98603 13.3929 6.69643 13.3929C7.40683 13.3929 8.08814 13.6751 8.59046 14.1774C9.09279 14.6797 9.375 15.361 9.375 16.0714C9.375 16.7818 9.09279 17.4631 8.59046 17.9655C8.08814 18.4678 7.40683 18.75 6.69643 18.75C5.98603 18.75 5.30472 18.4678 4.80239 17.9655C4.30006 17.4631 4.01786 16.7818 4.01786 16.0714ZM16.0714 14.7321C15.7162 14.7321 15.3756 14.8732 15.1244 15.1244C14.8732 15.3756 14.7321 15.7162 14.7321 16.0714C14.7321 16.4266 14.8732 16.7673 15.1244 17.0184C15.3756 17.2696 15.7162 17.4107 16.0714 17.4107C16.4266 17.4107 16.7673 17.2696 17.0184 17.0184C17.2696 16.7673 17.4107 16.4266 17.4107 16.0714C17.4107 15.7162 17.2696 15.3756 17.0184 15.1244C16.7673 14.8732 16.4266 14.7321 16.0714 14.7321ZM13.3929 16.0714C13.3929 15.361 13.6751 14.6797 14.1774 14.1774C14.6797 13.6751 15.361 13.3929 16.0714 13.3929C16.7818 13.3929 17.4631 13.6751 17.9655 14.1774C18.4678 14.6797 18.75 15.361 18.75 16.0714C18.75 16.7818 18.4678 17.4631 17.9655 17.9655C17.4631 18.4678 16.7818 18.75 16.0714 18.75C15.361 18.75 14.6797 18.4678 14.1774 17.9655C13.6751 17.4631 13.3929 16.7818 13.3929 16.0714Z" fill="black"/>
</svg>
